# xmcd
#
# Track frame offsets: 
#        182
#        12527
#        25207
#        38442
#        57042
#        68067
#        79845
#        96815
#        112132
#        126047
#        143997
#        156952
#
# Disc length: 2341 seconds
#
# Revision: 5
# Processed by: cddbd v1.5.2PL0 Copyright (c) Steve Scherf et al.
# Submitted via: ExactAudioCopy v1.3
#
DISCID=9b09230c
DTITLE=Gene Watson - Greatest Hits
DYEAR=1990
DGENRE=Country
TTITLE0=Got No Reason Now For Goin' Home
TTITLE1=I Don't Need A Thing At All
TTITLE2=One Sided Conversation
TTITLE3=Farewell Party
TTITLE4=Pick The Wildwood Flower
TTITLE5=Should I Come Home (Or Should I Go Crazy)
TTITLE6=Nothing Sure Looked Good On You
TTITLE7=Love In The Hot Afternoon
TTITLE8=Where Love Begins
TTITLE9=Paper Rosie
TTITLE10=You Could Know As Much About A Stranger
TTITLE11=The Old Man And His Horn
EXTD=Curb Records
EXTT0=
EXTT1=
EXTT2=
EXTT3=
EXTT4=
EXTT5=
EXTT6=
EXTT7=
EXTT8=
EXTT9=
EXTT10=
EXTT11=
PLAYORDER=
